<?xml version="1.0" standalone="no"?><!DOCTYPE svg PUBLIC "-//W3C//DTD SVG 1.1//EN" "http://www.w3.org/Graphics/SVG/1.1/DTD/svg11.dtd"><svg t="1616083209518" class="icon" viewBox="0 0 1024 1024" version="1.1" xmlns="http://www.w3.org/2000/svg" p-id="7703" xmlns:xlink="http://www.w3.org/1999/xlink" width="200" height="200"><defs><style type="text/css"></style></defs><path d="M806.809039 735.585097c39.414122-72.513273 55.963697-197.288365-136.969516-358.864488S357.357399 252.816548 292.901156 304.860609c-128.041456 101.039516-201.643517 349.500912-188.142547 568.129519a172.028486 172.028486 0 0 0 49.213213 119.331153 163.535941 163.535941 0 0 0 125.210607 29.179515C492.14934 993.627826 729.505099 879.305098 806.809039 735.585097z" fill="#000000" p-id="7704"></path><path d="M350.171399 718.600006a66.851576 66.851576 0 0 0-11.105636 51.173031 66.851576 66.851576 0 0 0 48.559939-19.81594c13.50097-16.114061 13.718727-33.316909 3.266364-42.027212s-27.219697-4.572909-40.720667 10.670121zM277.658126 544.393944a66.851576 66.851576 0 0 0-11.105637 51.173031 66.851576 66.851576 0 0 0 49.213213-20.033698c13.50097-16.114061 13.718727-33.316909 3.266364-42.027212s-27.655212-5.443939-41.37394 10.887879zM582.083219 754.747764c-10.452364-8.710303-27.219697-5.661697-40.720667 10.452364a66.851576 66.851576 0 0 0-11.105636 51.17303 66.851576 66.851576 0 0 0 48.55994-19.815939c13.50097-15.896303 13.50097-33.099152 3.266363-41.809455zM194.256974 760.844976a66.851576 66.851576 0 0 0-11.105637 51.173031 66.851576 66.851576 0 0 0 48.55994-19.81594c13.50097-16.114061 13.718727-33.316909 3.266364-42.027212s-28.090728-5.443939-40.720667 10.670121zM346.251763 888.450916a66.851576 66.851576 0 0 0-11.105637 51.173031 66.851576 66.851576 0 0 0 48.55994-19.815939c13.50097-16.114061 13.718727-33.316909 3.266364-42.027213s-27.655212-5.661697-40.720667 10.670121z" fill="#000000" p-id="7705"></path><path d="M846.440918 525.013519C925.486919 539.821035 990.814192 479.066671 990.814192 479.066671c-28.090728 6.097212-95.595577-52.044061-148.510668-88.191819a264.357699 264.357699 0 0 0-142.631213-49.213213h1.088788a264.357699 264.357699 0 0 0-63.585213-136.751759C595.584189 155.043395 530.910188 93.853516 533.523279 65.327273c0 0-65.327273 87.103031-21.775757 172.028487a397.625337 397.625337 0 0 0-106.047941-31.139334 261.309093 261.309093 0 0 0-188.795819 47.471152 415.481458 415.481458 0 0 1 77.957212 49.866485c36.801031 29.397273 75.344122 75.126364 134.138668 91.022668a250.638972 250.638972 0 0 0 75.779637 7.403757c-92.982486 110.185334-69.682425 253.905335-69.682425 253.905336a356.033639 356.033639 0 0 0 241.057639-116.500304 251.074487 251.074487 0 0 0 21.775757 77.957212c25.259879 54.003879 74.690849 84.925455 108.878789 115.629274a528.715398 528.715398 0 0 1 64.020728 66.633819 261.309093 261.309093 0 0 0 14.154243-192.497699 357.993457 357.993457 0 0 0-38.543092-82.094607z" fill="#000000" p-id="7706"></path><path d="M235.195398 457.290913c-18.944909 16.767333-46.164606 91.893698-34.841212 97.773152s17.202849-21.775758 56.181455-76.215152c11.976667-18.291637-12.194424-30.921576-21.340243-21.558zM292.465641 401.762731a18.073879 18.073879 0 0 0-25.695394 2.613091 18.727152 18.727152 0 0 0 0 26.130909c6.968242 6.532727 15.896303 2.395333 23.300061-5.661697s9.363576-16.549576 2.395333-23.082303z" fill="#000000" p-id="7707"></path><path d="M976.65995 442.701155a10.887879 10.887879 0 0 0 2.177576-12.194424 10.670121 10.670121 0 0 0-10.670122-6.31497c-18.291637 1.306545-48.124425-21.775758-78.828243-46.382364a689.202733 689.202733 0 0 0-56.834728-43.551515 306.384912 306.384912 0 0 0-73.166546-33.099152 876.038734 876.038734 0 0 1 105.17691-86.014243 10.887879 10.887879 0 0 0 4.137394-14.372l-33.970182-65.327274a10.887879 10.887879 0 0 0-6.750485-5.443939 10.670121 10.670121 0 0 0-8.710303 1.306545 342.532669 342.532669 0 0 0-60.536606 57.923516 540.474307 540.474307 0 0 0-54.439395 72.077758 10.887879 10.887879 0 0 0 18.509394 11.323394 531.981762 531.981762 0 0 1 51.826304-66.851576 471.227398 471.227398 0 0 1 46.600121-46.817879l23.300061 43.551515A1194.835828 1194.835828 0 0 0 729.505099 299.198912a10.887879 10.887879 0 0 0 4.355152 18.291636 326.636366 326.636366 0 0 1 85.796485 35.93 668.298005 668.298005 0 0 1 55.092667 41.156183 309.651275 309.651275 0 0 0 68.158122 46.382364 163.753698 163.753698 0 0 1-117.589092 29.61503 10.887879 10.887879 0 0 0-11.105636 16.331818A346.016791 346.016791 0 0 1 852.755888 566.169702a281.125033 281.125033 0 0 1 0 167.455577L789.388433 675.04849a10.887879 10.887879 0 0 0-17.420606 3.484122q-3.484121 7.839273-7.403758 14.807515C688.131159 834.22928 446.420248 972.940856 259.584247 984.699766c-60.101091 3.484121-163.535941-10.670121-176.601396-149.599456a810.711461 810.711461 0 0 1 57.270243-376.285094 10.887879 10.887879 0 0 0-20.469212-8.492546 833.576007 833.576007 0 0 0-58.576788 386.737458c15.025273 148.728425 123.904062 169.85091 183.569638 169.850911h16.11406c197.506123-12.194424 441.830125-153.73685 522.618186-302.683033l1.524303-2.613091 63.802971 60.101091a10.670121 10.670121 0 0 0 9.363576 2.830849 10.887879 10.887879 0 0 0 7.839272-5.661697 283.084851 283.084851 0 0 0 7.403758-197.288366 330.120488 330.120488 0 0 0-28.961758-66.416061h5.008424a194.457517 194.457517 0 0 0 127.170426-52.479576zM145.914791 418.965579a10.670121 10.670121 0 0 0 5.008425 1.088788 10.887879 10.887879 0 0 0 9.799091-6.31497q6.532727-12.629939 13.283212-24.824363a10.887879 10.887879 0 0 0-18.944909-10.887879Q147.87461 391.96364 141.55964 404.375822a10.887879 10.887879 0 0 0 4.355151 14.589757zM189.901822 354.727094a10.887879 10.887879 0 0 0 8.928061-4.572909 391.96364 391.96364 0 0 1 40.938424-49.648728 10.887879 10.887879 0 1 0-15.460788-15.24303 413.739397 413.739397 0 0 0-43.551515 52.479576 10.887879 10.887879 0 0 0 8.92806 17.202848z" fill="#000000" p-id="7708"></path><path d="M266.116974 267.624063a10.887879 10.887879 0 0 0 15.025273-3.484121 10.887879 10.887879 0 0 0-3.484121-15.025273L214.943943 209.700547A263.268911 263.268911 0 0 1 383.052793 174.206062a383.688852 383.688852 0 0 1 102.999335 30.268303 10.887879 10.887879 0 0 0 13.936484-15.025273c-28.308485-54.439394-6.968242-111.056365 8.492546-140.235879A490.607822 490.607822 0 0 0 575.114977 130.654547c11.105636 12.194424 21.775758 24.388849 32.010364 35.93a285.915699 285.915699 0 0 1 28.961757 40.720667 10.887879 10.887879 0 1 0 18.727152-10.887879 307.691457 307.691457 0 0 0-31.139333-43.551516c-10.016849-11.541152-21.775758-23.953334-32.44588-36.365515-29.615031-32.445879-70.11794-77.086182-68.158121-93.853516a10.887879 10.887879 0 0 0-19.598182-7.839273C500.859643 18.727152 446.420248 93.200243 470.373582 174.206062a359.082245 359.082245 0 0 0-84.925455-21.775758 271.761457 271.761457 0 0 0-197.070608 49.43097 10.887879 10.887879 0 0 0 1.306545 17.420607z" fill="#000000" p-id="7709"></path></svg>